<svg xmlns="http://www.w3.org/2000/svg" viewBox="0 0 510 100" role="img" aria-label="FONTE">
  <style>:root{--fonte-rouge:#E8112D;}</style>

  <!-- monogramme -->
  <g>
    <polygon points="16,8 86,8 50,36 16,36" fill="var(--fonte-rouge)"/>
    <polygon points="16,46 64,46 40,68 16,68" fill="var(--fonte-rouge)"/>
    <polygon points="18,36 34,36 24,94" fill="var(--fonte-rouge)"/>
  </g>

  <!-- mot FONTE, tracés vectoriels -->
  <g transform="translate(120,0)" fill="currentColor">
    <!-- F -->
    <polygon points="0,0 22,0 22,100 0,100"/>
    <polygon points="0,0 70,0 70,22 0,22"/>
    <polygon points="0,39 58,39 58,61 0,61"/>
    <!-- O -->
    <path fill-rule="evenodd" d="M82,0 H156 V100 H82 Z M104,22 H134 V78 H104 Z"/>
    <!-- N -->
    <polygon points="168,0 190,0 190,100 168,100"/>
    <polygon points="220,0 242,0 242,100 220,100"/>
    <polygon points="168,0 190,0 242,100 220,100"/>
    <!-- T -->
    <polygon points="254,0 318,0 318,22 254,22"/>
    <polygon points="275,0 297,0 297,100 275,100"/>
    <!-- E -->
    <polygon points="330,0 352,0 352,100 330,100"/>
    <polygon points="330,0 390,0 390,22 330,22"/>
    <polygon points="330,39 380,39 380,61 330,61"/>
    <polygon points="330,78 390,78 390,100 330,100"/>
  </g>
</svg>
